<svg width="37" height="22" viewBox="0 0 37 22" fill="none" xmlns="http://www.w3.org/2000/svg">
<path d="M31.2103 17.169C33.607 17.169 35.3879 15.6658 35.3879 13.6435C35.3879 12.0739 34.4582 10.9329 32.9007 10.6733V10.5767C34.1503 10.1964 34.9291 9.1701 34.9291 7.77557C34.9291 6.02486 33.5466 4.46733 31.2586 4.46733C29.1215 4.46733 27.3467 5.78338 27.2742 7.72727H28.7231C28.7774 6.49574 29.9486 5.77131 31.2345 5.77131C32.5988 5.77131 33.4802 6.59837 33.4802 7.84801C33.4802 9.15199 32.46 9.99716 30.993 9.99716H30.0029V11.3253H30.993C32.8705 11.3253 33.9149 12.2791 33.9149 13.6435C33.9149 14.9535 32.7739 15.8409 31.1862 15.8409C29.7554 15.8409 28.6205 15.1044 28.5299 13.9091H27.0086C27.0992 15.853 28.8137 17.169 31.2103 17.169Z" fill="white"/>
<path d="M18.0178 18.4938L16.4885 6.0293C16.4428 5.8043 16.2635 5.625 16.0385 5.625H12.7531V4.36464C12.7531 1.75428 11.3135 0 9.15313 0C6.99277 0 5.55313 1.75428 5.55313 4.36464V5.625H1.99885C1.77385 5.625 1.59455 5.8043 1.54885 6.0293L0.0195675 18.4938C-0.0700815 19.1231 0.154918 19.7981 0.559207 20.2481C0.963505 20.7438 1.59457 21.0128 2.22385 21.0128H15.7697C16.399 21.0128 17.0301 20.7421 17.4344 20.2481C17.8826 19.7999 18.1076 19.1249 18.018 18.4938H18.0178ZM6.45322 4.4084C6.45322 2.78768 7.17394 0.943757 9.15322 0.943757C11.1325 0.943757 11.8532 2.78948 11.8532 4.4084V5.66876H6.45322V4.4084ZM16.8032 19.6643C16.5325 19.935 16.1739 20.1143 15.8136 20.1143H2.22403C1.81973 20.1143 1.45939 19.935 1.23439 19.6643C1.00939 19.3936 0.874037 18.9893 0.919739 18.585L2.40334 6.56867H15.6324L17.1178 18.6291C17.1635 18.9895 17.0282 19.3938 16.8032 19.6645L16.8032 19.6643Z" fill="white"/>
</svg>
