<svg width="26" height="26" viewBox="0 0 26 26" fill="none" xmlns="http://www.w3.org/2000/svg">
<path d="M25.2563 12.4568C24.9551 12.4568 24.7126 12.7005 24.7126 13.0005V24.7132H1.28762V1.2882H13.0003C13.3015 1.2882 13.544 1.04445 13.544 0.744458C13.544 0.443207 13.3003 0.200714 13.0003 0.200714H0.743939C0.442688 0.200714 0.200195 0.444464 0.200195 0.744458V25.2571C0.200195 25.5583 0.443946 25.8008 0.743939 25.8008H25.2566C25.5578 25.8008 25.8003 25.5571 25.8003 25.2571V13.0008C25.8003 12.6995 25.5566 12.457 25.2566 12.457L25.2563 12.4568Z" fill="black"/>
<path d="M25.4637 0.241263C25.3962 0.216263 25.3262 0.200012 25.2562 0.200012H17.9026C17.6013 0.200012 17.3589 0.443763 17.3589 0.743756C17.3589 1.04501 17.6026 1.2875 17.9026 1.2875H23.9413L12.6162 12.6161C12.405 12.8274 12.405 13.1724 12.6162 13.3874C12.7212 13.4924 12.8625 13.5474 12.9999 13.5474C13.1374 13.5474 13.2787 13.4924 13.3837 13.3874L24.7123 2.05876V8.09749C24.7123 8.39874 24.9561 8.64123 25.2561 8.64123C25.5573 8.64123 25.7998 8.39748 25.7998 8.09749V0.743884C25.7998 0.673884 25.7836 0.602633 25.7586 0.536384C25.7036 0.405133 25.5948 0.296383 25.4636 0.241382L25.4637 0.241263Z" fill="black"/>
</svg>
